<svg width="99" height="105" viewBox="0 0 99 105" fill="none" xmlns="http://www.w3.org/2000/svg">
<rect y="15" width="99" height="41" fill="#4BC221"/>
<rect x="5" width="34" height="8" rx="4" fill="#4BC221"/>
<rect x="56" width="34" height="8" rx="4" fill="#4BC221"/>
<rect x="5" y="63" width="34" height="8" rx="4" fill="#4BC221"/>
<rect x="56" y="63" width="34" height="8" rx="4" fill="#4BC221"/>
<path d="M41.8214 78.54H44.9414L51.9614 99H49.3514L47.5514 93.54H39.2414L37.4114 99H34.8014L41.8214 78.54ZM46.7414 91.14L43.4414 80.94H43.3514L40.0214 91.14H46.7414ZM56.082 97.02C56.782 97 57.492 96.98 58.212 96.96C58.832 96.94 59.502 96.93 60.222 96.93C60.942 96.91 61.642 96.9 62.322 96.9H64.182V93.75C64.182 92.67 64.182 91.71 64.182 90.87C64.202 90.03 64.222 89.32 64.242 88.74C64.262 88.06 64.292 87.46 64.332 86.94L56.082 97.02ZM53.022 97.38L64.182 83.91H66.582V96.9H68.682V99H66.582V104.85H64.182V99H53.172L53.022 97.38Z" fill="white"/>
</svg>
