<svg width="99" height="104" viewBox="0 0 99 104" fill="none" xmlns="http://www.w3.org/2000/svg">
<rect y="15" width="99" height="41" fill="#4BC221"/>
<rect x="5" width="34" height="8" rx="4" fill="#4BC221"/>
<rect x="56" width="34" height="8" rx="4" fill="#4BC221"/>
<rect x="5" y="63" width="34" height="8" rx="4" fill="#4BC221"/>
<rect x="56" y="63" width="34" height="8" rx="4" fill="#4BC221"/>
<path d="M37.8988 77.54H43.3588C45.5188 77.54 47.0788 77.94 48.0388 78.74C49.0188 79.54 49.5088 80.76 49.5088 82.4C49.5088 83.16 49.3988 83.82 49.1788 84.38C48.9788 84.94 48.7488 85.41 48.4888 85.79C48.1888 86.23 47.8588 86.61 47.4988 86.93C47.9788 87.11 48.4288 87.34 48.8488 87.62C49.2688 87.9 49.6388 88.24 49.9588 88.64C50.2788 89.04 50.5288 89.52 50.7088 90.08C50.9088 90.62 51.0088 91.26 51.0088 92C51.0088 92.82 50.8988 93.6 50.6788 94.34C50.4588 95.06 50.0888 95.69 49.5688 96.23C49.0488 96.77 48.3588 97.2 47.4988 97.52C46.6388 97.84 45.5688 98 44.2888 98H37.8988V77.54ZM40.4188 86.42H45.4288C45.7088 86.2 45.9588 85.91 46.1788 85.55C46.3788 85.25 46.5588 84.88 46.7188 84.44C46.8788 83.98 46.9588 83.43 46.9588 82.79C46.9588 81.61 46.6488 80.82 46.0288 80.42C45.4288 80 44.5788 79.79 43.4788 79.79H40.4188V86.42ZM40.4188 95.75H44.4988C45.8188 95.75 46.8088 95.41 47.4688 94.73C48.1288 94.05 48.4588 93.14 48.4588 92C48.4588 91.5 48.3888 91.04 48.2488 90.62C48.1288 90.2 47.9088 89.84 47.5888 89.54C47.2688 89.22 46.8388 88.97 46.2988 88.79C45.7588 88.61 45.0888 88.52 44.2888 88.52H40.4188V95.75ZM56.0546 96.02C56.7546 96 57.4646 95.98 58.1846 95.96C58.8046 95.94 59.4746 95.93 60.1946 95.93C60.9146 95.91 61.6146 95.9 62.2946 95.9H64.1546V92.75C64.1546 91.67 64.1546 90.71 64.1546 89.87C64.1746 89.03 64.1946 88.32 64.2146 87.74C64.2346 87.06 64.2646 86.46 64.3046 85.94L56.0546 96.02ZM52.9946 96.38L64.1546 82.91H66.5546V95.9H68.6546V98H66.5546V103.85H64.1546V98H53.1446L52.9946 96.38Z" fill="white"/>
</svg>
