<svg width="99" height="106" viewBox="0 0 99 106" fill="none" xmlns="http://www.w3.org/2000/svg">
<rect y="15" width="99" height="41" fill="#4BC221"/>
<rect x="5" width="34" height="8" rx="4" fill="#4BC221"/>
<rect x="56" width="34" height="8" rx="4" fill="#4BC221"/>
<rect x="5" y="63" width="34" height="8" rx="4" fill="#4BC221"/>
<rect x="56" y="63" width="34" height="8" rx="4" fill="#4BC221"/>
<path d="M35.7171 85.54H41.1771C43.3371 85.54 44.8971 85.94 45.8571 86.74C46.8371 87.54 47.3271 88.76 47.3271 90.4C47.3271 91.16 47.2171 91.82 46.9971 92.38C46.7971 92.94 46.5671 93.41 46.3071 93.79C46.0071 94.23 45.6771 94.61 45.3171 94.93C45.7971 95.11 46.2471 95.34 46.6671 95.62C47.0871 95.9 47.4571 96.24 47.7771 96.64C48.0971 97.04 48.3471 97.52 48.5271 98.08C48.7271 98.62 48.8271 99.26 48.8271 100C48.8271 100.82 48.7171 101.6 48.4971 102.34C48.2771 103.06 47.9071 103.69 47.3871 104.23C46.8671 104.77 46.1771 105.2 45.3171 105.52C44.4571 105.84 43.3871 106 42.1071 106H35.7171V85.54ZM38.2371 94.42H43.2471C43.5271 94.2 43.7771 93.91 43.9971 93.55C44.1971 93.25 44.3771 92.88 44.5371 92.44C44.6971 91.98 44.7771 91.43 44.7771 90.79C44.7771 89.61 44.4671 88.82 43.8471 88.42C43.2471 88 42.3971 87.79 41.2971 87.79H38.2371V94.42ZM38.2371 103.75H42.3171C43.6371 103.75 44.6271 103.41 45.2871 102.73C45.9471 102.05 46.2771 101.14 46.2771 100C46.2771 99.5 46.2071 99.04 46.0671 98.62C45.9471 98.2 45.7271 97.84 45.4071 97.54C45.0871 97.22 44.6571 96.97 44.1171 96.79C43.5771 96.61 42.9071 96.52 42.1071 96.52H38.2371V103.75ZM51.623 104.86C53.263 103.56 54.733 102.29 56.033 101.05C56.593 100.53 57.133 99.99 57.653 99.43C58.193 98.87 58.673 98.32 59.093 97.78C59.513 97.24 59.843 96.73 60.083 96.25C60.343 95.75 60.473 95.3 60.473 94.9C60.473 94.26 60.263 93.74 59.843 93.34C59.443 92.92 58.643 92.71 57.443 92.71C56.823 92.71 56.223 92.76 55.643 92.86C55.063 92.96 54.543 93.06 54.083 93.16C53.543 93.3 53.023 93.45 52.523 93.61L51.803 91.69C52.323 91.49 52.913 91.31 53.573 91.15C54.113 91.01 54.743 90.89 55.463 90.79C56.203 90.67 56.983 90.61 57.803 90.61C58.463 90.61 59.103 90.68 59.723 90.82C60.363 90.94 60.923 91.16 61.403 91.48C61.903 91.78 62.293 92.19 62.573 92.71C62.873 93.23 63.023 93.89 63.023 94.69C63.023 95.15 62.923 95.64 62.723 96.16C62.523 96.66 62.263 97.17 61.943 97.69C61.643 98.19 61.283 98.7 60.863 99.22C60.463 99.72 60.053 100.2 59.633 100.66C58.653 101.74 57.533 102.81 56.273 103.87C56.753 103.85 57.253 103.83 57.773 103.81C58.233 103.79 58.753 103.78 59.333 103.78C59.933 103.76 60.553 103.75 61.193 103.75H63.473V106H51.623V104.86Z" fill="white"/>
</svg>
