<svg width="99" height="106" viewBox="0 0 99 106" fill="none" xmlns="http://www.w3.org/2000/svg">
<rect y="15" width="99" height="41" fill="#4BC221"/>
<rect x="5" width="34" height="8" rx="4" fill="#4BC221"/>
<rect x="56" width="34" height="8" rx="4" fill="#4BC221"/>
<rect x="5" y="63" width="34" height="8" rx="4" fill="#4BC221"/>
<rect x="56" y="63" width="34" height="8" rx="4" fill="#4BC221"/>
<path d="M39.0609 85.54H44.5209C46.6809 85.54 48.2409 85.94 49.2009 86.74C50.1809 87.54 50.6709 88.76 50.6709 90.4C50.6709 91.16 50.5609 91.82 50.3409 92.38C50.1409 92.94 49.9109 93.41 49.6509 93.79C49.3509 94.23 49.0209 94.61 48.6609 94.93C49.1409 95.11 49.5909 95.34 50.0109 95.62C50.4309 95.9 50.8009 96.24 51.1209 96.64C51.4409 97.04 51.6909 97.52 51.8709 98.08C52.0709 98.62 52.1709 99.26 52.1709 100C52.1709 100.82 52.0609 101.6 51.8409 102.34C51.6209 103.06 51.2509 103.69 50.7309 104.23C50.2109 104.77 49.5209 105.2 48.6609 105.52C47.8009 105.84 46.7309 106 45.4509 106H39.0609V85.54ZM41.5809 94.42H46.5909C46.8709 94.2 47.1209 93.91 47.3409 93.55C47.5409 93.25 47.7209 92.88 47.8809 92.44C48.0409 91.98 48.1209 91.43 48.1209 90.79C48.1209 89.61 47.8109 88.82 47.1909 88.42C46.5909 88 45.7409 87.79 44.6409 87.79H41.5809V94.42ZM41.5809 103.75H45.6609C46.9809 103.75 47.9709 103.41 48.6309 102.73C49.2909 102.05 49.6209 101.14 49.6209 100C49.6209 99.5 49.5509 99.04 49.4109 98.62C49.2909 98.2 49.0709 97.84 48.7509 97.54C48.4309 97.22 48.0009 96.97 47.4609 96.79C46.9209 96.61 46.2509 96.52 45.4509 96.52H41.5809V103.75ZM58.7168 93.67L54.7868 94.42L54.3068 92.38L59.6468 90.91H61.1168V106H58.7168V93.67Z" fill="white"/>
</svg>
