<svg width="99" height="109" viewBox="0 0 99 109" fill="none" xmlns="http://www.w3.org/2000/svg">
<rect y="15" width="99" height="41" fill="#D81F1F"/>
<rect x="5" width="34" height="8" rx="4" fill="#D81F1F"/>
<rect x="56" width="34" height="8" rx="4" fill="#D81F1F"/>
<rect x="5" y="63" width="34" height="8" rx="4" fill="#D81F1F"/>
<rect x="56" y="63" width="34" height="8" rx="4" fill="#D81F1F"/>
<path d="M40.9789 82.54H46.4389C48.5989 82.54 50.1589 82.94 51.1189 83.74C52.0989 84.54 52.5889 85.76 52.5889 87.4C52.5889 88.16 52.4789 88.82 52.2589 89.38C52.0589 89.94 51.8289 90.41 51.5689 90.79C51.2689 91.23 50.9389 91.61 50.5789 91.93C51.0589 92.11 51.5089 92.34 51.9289 92.62C52.3489 92.9 52.7189 93.24 53.0389 93.64C53.3589 94.04 53.6089 94.52 53.7889 95.08C53.9889 95.62 54.0889 96.26 54.0889 97C54.0889 97.82 53.9789 98.6 53.7589 99.34C53.5389 100.06 53.1689 100.69 52.6489 101.23C52.1289 101.77 51.4389 102.2 50.5789 102.52C49.7189 102.84 48.6489 103 47.3689 103H40.9789V82.54ZM43.4989 91.42H48.5089C48.7889 91.2 49.0389 90.91 49.2589 90.55C49.4589 90.25 49.6389 89.88 49.7989 89.44C49.9589 88.98 50.0389 88.43 50.0389 87.79C50.0389 86.61 49.7289 85.82 49.1089 85.42C48.5089 85 47.6589 84.79 46.5589 84.79H43.4989V91.42ZM43.4989 100.75H47.5789C48.8989 100.75 49.8889 100.41 50.5489 99.73C51.2089 99.05 51.5389 98.14 51.5389 97C51.5389 96.5 51.4689 96.04 51.3289 95.62C51.2089 95.2 50.9889 94.84 50.6689 94.54C50.3489 94.22 49.9189 93.97 49.3789 93.79C48.8389 93.61 48.1689 93.52 47.3689 93.52H43.4989V100.75ZM56.3588 105.76C56.7388 105.94 57.0988 106.09 57.4388 106.21C57.7988 106.35 58.1388 106.45 58.4588 106.51C58.7988 106.59 59.1388 106.65 59.4788 106.69C59.8388 106.73 60.2188 106.75 60.6188 106.75C61.1388 106.75 61.6388 106.67 62.1188 106.51C62.5988 106.35 63.0188 106.11 63.3788 105.79C63.7388 105.47 64.0288 105.06 64.2488 104.56C64.4688 104.08 64.5788 103.51 64.5788 102.85C64.5788 101.53 64.0388 100.51 62.9588 99.79C61.8988 99.07 60.4988 98.7 58.7588 98.68V96.58C60.4588 96.58 61.8088 96.22 62.8088 95.5C63.8288 94.78 64.3388 93.73 64.3388 92.35C64.3388 91.97 64.2888 91.62 64.1888 91.3C64.1088 90.98 63.9488 90.7 63.7088 90.46C63.4888 90.22 63.1888 90.04 62.8088 89.92C62.4288 89.78 61.9488 89.71 61.3688 89.71C60.8888 89.71 60.4288 89.74 59.9888 89.8C59.5688 89.86 59.1888 89.92 58.8488 89.98C58.4688 90.06 58.0988 90.14 57.7388 90.22L57.1388 88.27C57.5188 88.15 57.9488 88.04 58.4288 87.94C58.8288 87.86 59.3088 87.79 59.8688 87.73C60.4288 87.65 61.0388 87.61 61.6988 87.61C63.2588 87.61 64.5088 87.99 65.4488 88.75C66.4088 89.49 66.8888 90.68 66.8888 92.32C66.8888 93.12 66.7588 93.82 66.4988 94.42C66.2388 95 65.9188 95.5 65.5388 95.92C65.1788 96.34 64.7788 96.68 64.3388 96.94C63.9188 97.18 63.5288 97.36 63.1688 97.48V97.57C63.6688 97.75 64.1588 97.99 64.6388 98.29C65.1188 98.59 65.5388 98.96 65.8988 99.4C66.2788 99.84 66.5788 100.35 66.7988 100.93C67.0188 101.49 67.1288 102.13 67.1288 102.85C67.1288 104.03 66.9088 105 66.4688 105.76C66.0488 106.54 65.5188 107.16 64.8788 107.62C64.2388 108.08 63.5288 108.4 62.7488 108.58C61.9888 108.76 61.2788 108.85 60.6188 108.85C59.8588 108.85 59.1688 108.79 58.5488 108.67C57.9488 108.57 57.4288 108.45 56.9888 108.31C56.4688 108.15 56.0088 107.97 55.6088 107.77L56.3588 105.76Z" fill="white"/>
</svg>
