<svg width="220" height="114" viewBox="0 0 220 114" fill="none" xmlns="http://www.w3.org/2000/svg">
<rect x="60" y="15" width="99" height="41" fill="#D81F1F"/>
<rect x="65" width="34" height="8" rx="4" fill="#D81F1F"/>
<rect x="116" width="34" height="8" rx="4" fill="#D81F1F"/>
<rect x="65" y="63" width="34" height="8" rx="4" fill="#D81F1F"/>
<rect x="116" y="63" width="34" height="8" rx="4" fill="#D81F1F"/>
<path d="M3.69828 92.54H6.90828L11.5283 104.72C11.7883 105.42 12.0283 106.07 12.2483 106.67C12.4683 107.25 12.6583 107.77 12.8183 108.23C13.0183 108.75 13.1883 109.23 13.3283 109.67H13.3883C13.5083 109.23 13.6583 108.75 13.8383 108.23C13.9983 107.77 14.1783 107.25 14.3783 106.67C14.5783 106.07 14.8183 105.42 15.0983 104.72L19.8083 92.54H23.0183L24.0683 113H21.5183L21.0083 101.75C20.9683 100.77 20.9383 99.94 20.9183 99.26C20.8983 98.58 20.8883 98.02 20.8883 97.58V96.32H20.8283C20.7083 96.62 20.5583 97.03 20.3783 97.55C20.2183 97.99 20.0083 98.56 19.7483 99.26C19.5083 99.94 19.2083 100.77 18.8483 101.75L14.6183 113H12.0683L7.80828 101.75C7.42828 100.79 7.11828 99.97 6.87828 99.29C6.63828 98.59 6.43828 98.02 6.27828 97.58C6.09828 97.06 5.95828 96.64 5.85828 96.32H5.79828C5.81828 96.64 5.83828 97.06 5.85828 97.58C5.87828 98.42 5.84828 99.81 5.76828 101.75L5.16828 113H2.61828L3.69828 92.54ZM28.8802 92.54H41.4202V94.85H31.4002V101.39H40.7002V103.64H31.4002V110.69H41.7202V113H28.8802V92.54ZM56.2838 95.36C55.8038 95.24 55.3038 95.13 54.7838 95.03C54.3238 94.93 53.7938 94.85 53.1938 94.79C52.6138 94.71 52.0038 94.67 51.3638 94.67C49.8838 94.67 48.8238 94.9 48.1838 95.36C47.5438 95.8 47.2238 96.49 47.2238 97.43C47.2438 98.17 47.5138 98.8 48.0338 99.32C48.5538 99.82 49.2038 100.29 49.9838 100.73C50.7638 101.15 51.6138 101.57 52.5338 101.99C53.4738 102.39 54.3338 102.86 55.1138 103.4C55.8938 103.92 56.5438 104.54 57.0638 105.26C57.6038 105.96 57.8738 106.82 57.8738 107.84C57.8738 109.02 57.6138 109.97 57.0938 110.69C56.5938 111.41 55.9538 111.97 55.1738 112.37C54.3938 112.77 53.5338 113.04 52.5938 113.18C51.6738 113.32 50.7938 113.39 49.9538 113.39C49.1538 113.39 48.4238 113.34 47.7638 113.24C47.1038 113.14 46.5338 113.03 46.0538 112.91C45.4938 112.77 44.9838 112.61 44.5238 112.43L45.1238 110C45.5838 110.2 46.0738 110.37 46.5938 110.51C47.0538 110.63 47.5638 110.74 48.1238 110.84C48.7038 110.94 49.3138 110.99 49.9538 110.99C50.7338 110.99 51.4438 110.94 52.0838 110.84C52.7438 110.74 53.3138 110.58 53.7938 110.36C54.2738 110.14 54.6438 109.85 54.9038 109.49C55.1838 109.13 55.3238 108.69 55.3238 108.17C55.3038 107.39 55.0438 106.76 54.5438 106.28C54.0638 105.78 53.4138 105.31 52.5938 104.87C51.7938 104.41 50.9238 103.97 49.9838 103.55C49.0638 103.13 48.2138 102.65 47.4338 102.11C46.6538 101.57 45.9938 100.93 45.4538 100.19C44.9338 99.45 44.6738 98.53 44.6738 97.43C44.6738 96.79 44.7838 96.16 45.0038 95.54C45.2238 94.92 45.5938 94.37 46.1138 93.89C46.6538 93.41 47.3438 93.02 48.1838 92.72C49.0438 92.42 50.1038 92.27 51.3638 92.27C52.0838 92.27 52.7638 92.31 53.4038 92.39C54.0638 92.45 54.6338 92.52 55.1138 92.6C55.6738 92.7 56.2038 92.81 56.7038 92.93L56.2838 95.36ZM66.5548 92.54H69.6748L76.6948 113H74.0848L72.2848 107.54H63.9748L62.1448 113H59.5348L66.5548 92.54ZM71.4748 105.14L68.1748 94.94H68.0848L64.7548 105.14H71.4748ZM85.6609 102.77C85.6609 100.83 85.9609 99.19 86.5609 97.85C87.1809 96.51 87.9609 95.43 88.9009 94.61C89.8609 93.79 90.9209 93.2 92.0809 92.84C93.2609 92.46 94.4109 92.27 95.5309 92.27C96.6509 92.27 97.7909 92.43 98.9509 92.75C100.131 93.05 101.191 93.6 102.131 94.4C103.091 95.18 103.871 96.25 104.471 97.61C105.091 98.97 105.401 100.7 105.401 102.8C105.401 104.76 105.091 106.41 104.471 107.75C103.871 109.09 103.091 110.18 102.131 111.02C101.191 111.86 100.131 112.47 98.9509 112.85C97.7909 113.21 96.6509 113.39 95.5309 113.39C94.4109 113.39 93.2609 113.21 92.0809 112.85C90.9209 112.49 89.8609 111.9 88.9009 111.08C87.9609 110.26 87.1809 109.17 86.5609 107.81C85.9609 106.45 85.6609 104.77 85.6609 102.77ZM102.551 102.92C102.551 100.22 101.921 98.17 100.661 96.77C99.4209 95.37 97.7509 94.67 95.6509 94.67C94.5909 94.67 93.6209 94.84 92.7409 95.18C91.8809 95.5 91.1309 95.99 90.4909 96.65C89.8709 97.31 89.3809 98.14 89.0209 99.14C88.6809 100.12 88.5109 101.28 88.5109 102.62C88.5109 105.32 89.1309 107.39 90.3709 108.83C91.6309 110.27 93.3109 110.99 95.4109 110.99C96.4509 110.99 97.4109 110.83 98.2909 110.51C99.1709 110.17 99.9209 109.66 100.541 108.98C101.181 108.3 101.671 107.46 102.011 106.46C102.371 105.46 102.551 104.28 102.551 102.92ZM123.484 95.42C122.984 95.26 122.454 95.12 121.894 95C121.334 94.86 120.714 94.75 120.034 94.67C119.374 94.57 118.674 94.52 117.934 94.52C116.734 94.52 115.714 94.78 114.874 95.3C114.034 95.82 113.344 96.49 112.804 97.31C112.284 98.11 111.904 99.01 111.664 100.01C111.424 101.01 111.304 102 111.304 102.98C111.304 104.22 111.474 105.35 111.814 106.37C112.174 107.37 112.654 108.23 113.254 108.95C113.874 109.65 114.584 110.19 115.384 110.57C116.204 110.95 117.064 111.14 117.964 111.14C118.804 111.14 119.574 111.1 120.274 111.02C120.974 110.92 121.574 110.82 122.074 110.72C122.654 110.6 123.174 110.46 123.634 110.3L124.144 112.43C123.604 112.61 123.004 112.77 122.344 112.91C121.784 113.03 121.134 113.14 120.394 113.24C119.654 113.34 118.844 113.39 117.964 113.39C116.384 113.39 114.994 113.13 113.794 112.61C112.614 112.09 111.624 111.37 110.824 110.45C110.044 109.51 109.454 108.41 109.054 107.15C108.654 105.87 108.454 104.47 108.454 102.95C108.454 101.21 108.694 99.68 109.174 98.36C109.654 97.02 110.314 95.9 111.154 95C111.994 94.1 112.994 93.42 114.154 92.96C115.314 92.5 116.584 92.27 117.964 92.27C118.804 92.27 119.584 92.32 120.304 92.42C121.044 92.5 121.714 92.61 122.314 92.75C122.934 92.89 123.504 93.04 124.024 93.2L123.484 95.42ZM130.156 92.54V105.32C130.156 106.46 130.316 107.4 130.636 108.14C130.976 108.86 131.416 109.43 131.956 109.85C132.496 110.27 133.106 110.56 133.786 110.72C134.486 110.88 135.196 110.96 135.916 110.96C136.636 110.96 137.336 110.88 138.016 110.72C138.696 110.56 139.306 110.27 139.846 109.85C140.386 109.43 140.816 108.86 141.136 108.14C141.456 107.4 141.616 106.46 141.616 105.32V92.54H144.136V105.95C144.136 106.99 143.936 107.96 143.536 108.86C143.156 109.76 142.606 110.55 141.886 111.23C141.166 111.89 140.296 112.41 139.276 112.79C138.256 113.17 137.126 113.36 135.886 113.36C133.226 113.36 131.186 112.72 129.766 111.44C128.346 110.14 127.636 108.31 127.636 105.95V92.54H130.156ZM149.261 92.54H153.971C156.571 92.54 158.491 93 159.731 93.92C160.991 94.84 161.621 96.39 161.621 98.57C161.621 99.77 161.391 100.77 160.931 101.57C160.471 102.37 159.891 103.02 159.191 103.52C158.511 104 157.771 104.35 156.971 104.57C156.171 104.77 155.431 104.87 154.751 104.87H151.781V113H149.261V92.54ZM151.781 102.62H154.541C155.221 102.62 155.831 102.56 156.371 102.44C156.931 102.3 157.411 102.08 157.811 101.78C158.211 101.46 158.521 101.04 158.741 100.52C158.961 99.98 159.071 99.31 159.071 98.51C159.071 97.71 158.951 97.07 158.711 96.59C158.491 96.09 158.151 95.71 157.691 95.45C157.251 95.19 156.691 95.02 156.011 94.94C155.331 94.84 154.541 94.79 153.641 94.79H151.781V102.62ZM169.358 92.54H172.478L179.498 113H176.888L175.088 107.54H166.778L164.948 113H162.338L169.358 92.54ZM174.278 105.14L170.978 94.94H170.888L167.558 105.14H174.278ZM185.238 110.69H189.288C190.388 110.69 191.418 110.55 192.378 110.27C193.358 109.99 194.208 109.54 194.928 108.92C195.668 108.28 196.248 107.45 196.668 106.43C197.088 105.41 197.298 104.17 197.298 102.71C197.298 101.35 197.108 100.18 196.728 99.2C196.348 98.2 195.808 97.38 195.108 96.74C194.428 96.1 193.588 95.63 192.588 95.33C191.608 95.01 190.508 94.85 189.288 94.85H185.238V110.69ZM182.718 92.54H189.288C190.908 92.54 192.368 92.74 193.668 93.14C194.988 93.54 196.118 94.16 197.058 95C197.998 95.84 198.718 96.9 199.218 98.18C199.738 99.46 199.998 100.97 199.998 102.71C199.998 104.47 199.718 106 199.158 107.3C198.598 108.58 197.838 109.65 196.878 110.51C195.918 111.35 194.788 111.98 193.488 112.4C192.188 112.8 190.788 113 189.288 113H182.718V92.54ZM208.791 92.54H211.911L218.931 113H216.321L214.521 107.54H206.211L204.381 113H201.771L208.791 92.54ZM213.711 105.14L210.411 94.94H210.321L206.991 105.14H213.711Z" fill="white"/>
</svg>
