<svg width="99" height="107" viewBox="0 0 99 107" fill="none" xmlns="http://www.w3.org/2000/svg">
<rect y="15" width="99" height="41" fill="#4BC221"/>
<rect x="5" width="34" height="8" rx="4" fill="#4BC221"/>
<rect x="56" width="34" height="8" rx="4" fill="#4BC221"/>
<rect x="5" y="63" width="34" height="8" rx="4" fill="#4BC221"/>
<rect x="56" y="63" width="34" height="8" rx="4" fill="#4BC221"/>
<path d="M44.9308 80.54H48.0508L55.0708 101H52.4608L50.6608 95.54H42.3508L40.5208 101H37.9108L44.9308 80.54ZM49.8508 93.14L46.5508 82.94H46.4608L43.1308 93.14H49.8508ZM56.3568 103.76C56.7368 103.94 57.0968 104.09 57.4368 104.21C57.7968 104.35 58.1368 104.45 58.4568 104.51C58.7968 104.59 59.1368 104.65 59.4768 104.69C59.8368 104.73 60.2168 104.75 60.6168 104.75C61.1368 104.75 61.6368 104.67 62.1168 104.51C62.5968 104.35 63.0168 104.11 63.3768 103.79C63.7368 103.47 64.0268 103.06 64.2468 102.56C64.4668 102.08 64.5768 101.51 64.5768 100.85C64.5768 99.53 64.0368 98.51 62.9568 97.79C61.8968 97.07 60.4968 96.7 58.7568 96.68V94.58C60.4568 94.58 61.8068 94.22 62.8068 93.5C63.8268 92.78 64.3368 91.73 64.3368 90.35C64.3368 89.97 64.2868 89.62 64.1868 89.3C64.1068 88.98 63.9468 88.7 63.7068 88.46C63.4868 88.22 63.1868 88.04 62.8068 87.92C62.4268 87.78 61.9468 87.71 61.3668 87.71C60.8868 87.71 60.4268 87.74 59.9868 87.8C59.5668 87.86 59.1868 87.92 58.8468 87.98C58.4668 88.06 58.0968 88.14 57.7368 88.22L57.1368 86.27C57.5168 86.15 57.9468 86.04 58.4268 85.94C58.8268 85.86 59.3068 85.79 59.8668 85.73C60.4268 85.65 61.0368 85.61 61.6968 85.61C63.2568 85.61 64.5068 85.99 65.4468 86.75C66.4068 87.49 66.8868 88.68 66.8868 90.32C66.8868 91.12 66.7568 91.82 66.4968 92.42C66.2368 93 65.9168 93.5 65.5368 93.92C65.1768 94.34 64.7768 94.68 64.3368 94.94C63.9168 95.18 63.5268 95.36 63.1668 95.48V95.57C63.6668 95.75 64.1568 95.99 64.6368 96.29C65.1168 96.59 65.5368 96.96 65.8968 97.4C66.2768 97.84 66.5768 98.35 66.7968 98.93C67.0168 99.49 67.1268 100.13 67.1268 100.85C67.1268 102.03 66.9068 103 66.4668 103.76C66.0468 104.54 65.5168 105.16 64.8768 105.62C64.2368 106.08 63.5268 106.4 62.7468 106.58C61.9868 106.76 61.2768 106.85 60.6168 106.85C59.8568 106.85 59.1668 106.79 58.5468 106.67C57.9468 106.57 57.4268 106.45 56.9868 106.31C56.4668 106.15 56.0068 105.97 55.6068 105.77L56.3568 103.76Z" fill="white"/>
</svg>
