<svg width="246" height="114" viewBox="0 0 246 114" fill="none" xmlns="http://www.w3.org/2000/svg">
<rect x="73" y="15" width="99" height="41" fill="#4BC221"/>
<rect x="78" width="34" height="8" rx="4" fill="#4BC221"/>
<rect x="129" width="34" height="8" rx="4" fill="#4BC221"/>
<rect x="78" y="63" width="34" height="8" rx="4" fill="#4BC221"/>
<rect x="129" y="63" width="34" height="8" rx="4" fill="#4BC221"/>
<path d="M3.54398 92.54H6.75398L11.374 104.72C11.634 105.42 11.874 106.07 12.094 106.67C12.314 107.25 12.504 107.77 12.664 108.23C12.864 108.75 13.034 109.23 13.174 109.67H13.234C13.354 109.23 13.504 108.75 13.684 108.23C13.844 107.77 14.024 107.25 14.224 106.67C14.424 106.07 14.664 105.42 14.944 104.72L19.654 92.54H22.864L23.914 113H21.364L20.854 101.75C20.814 100.77 20.784 99.94 20.764 99.26C20.744 98.58 20.734 98.02 20.734 97.58V96.32H20.674C20.554 96.62 20.404 97.03 20.224 97.55C20.064 97.99 19.854 98.56 19.594 99.26C19.354 99.94 19.054 100.77 18.694 101.75L14.464 113H11.914L7.65398 101.75C7.27398 100.79 6.96398 99.97 6.72398 99.29C6.48398 98.59 6.28398 98.02 6.12398 97.58C5.94398 97.06 5.80398 96.64 5.70398 96.32H5.64398C5.66398 96.64 5.68398 97.06 5.70398 97.58C5.72398 98.42 5.69398 99.81 5.61398 101.75L5.01398 113H2.46398L3.54398 92.54ZM28.7259 92.54H41.2659V94.85H31.2459V101.39H40.5459V103.64H31.2459V110.69H41.5659V113H28.7259V92.54ZM56.1295 95.36C55.6495 95.24 55.1495 95.13 54.6295 95.03C54.1695 94.93 53.6395 94.85 53.0395 94.79C52.4595 94.71 51.8495 94.67 51.2095 94.67C49.7295 94.67 48.6695 94.9 48.0295 95.36C47.3895 95.8 47.0695 96.49 47.0695 97.43C47.0895 98.17 47.3595 98.8 47.8795 99.32C48.3995 99.82 49.0495 100.29 49.8295 100.73C50.6095 101.15 51.4595 101.57 52.3795 101.99C53.3195 102.39 54.1795 102.86 54.9595 103.4C55.7395 103.92 56.3895 104.54 56.9095 105.26C57.4495 105.96 57.7195 106.82 57.7195 107.84C57.7195 109.02 57.4595 109.97 56.9395 110.69C56.4395 111.41 55.7995 111.97 55.0195 112.37C54.2395 112.77 53.3795 113.04 52.4395 113.18C51.5195 113.32 50.6395 113.39 49.7995 113.39C48.9995 113.39 48.2695 113.34 47.6095 113.24C46.9495 113.14 46.3795 113.03 45.8995 112.91C45.3395 112.77 44.8295 112.61 44.3695 112.43L44.9695 110C45.4295 110.2 45.9195 110.37 46.4395 110.51C46.8995 110.63 47.4095 110.74 47.9695 110.84C48.5495 110.94 49.1595 110.99 49.7995 110.99C50.5795 110.99 51.2895 110.94 51.9295 110.84C52.5895 110.74 53.1595 110.58 53.6395 110.36C54.1195 110.14 54.4895 109.85 54.7495 109.49C55.0295 109.13 55.1695 108.69 55.1695 108.17C55.1495 107.39 54.8895 106.76 54.3895 106.28C53.9095 105.78 53.2595 105.31 52.4395 104.87C51.6395 104.41 50.7695 103.97 49.8295 103.55C48.9095 103.13 48.0595 102.65 47.2795 102.11C46.4995 101.57 45.8395 100.93 45.2995 100.19C44.7795 99.45 44.5195 98.53 44.5195 97.43C44.5195 96.79 44.6295 96.16 44.8495 95.54C45.0695 94.92 45.4395 94.37 45.9595 93.89C46.4995 93.41 47.1895 93.02 48.0295 92.72C48.8895 92.42 49.9495 92.27 51.2095 92.27C51.9295 92.27 52.6095 92.31 53.2495 92.39C53.9095 92.45 54.4795 92.52 54.9595 92.6C55.5195 92.7 56.0495 92.81 56.5495 92.93L56.1295 95.36ZM66.4005 92.54H69.5205L76.5405 113H73.9305L72.1305 107.54H63.8205L61.9905 113H59.3805L66.4005 92.54ZM71.3205 105.14L68.0205 94.94H67.9305L64.6005 105.14H71.3205ZM89.1366 110.69H93.1866C94.2866 110.69 95.3166 110.55 96.2766 110.27C97.2566 109.99 98.1066 109.54 98.8266 108.92C99.5666 108.28 100.147 107.45 100.567 106.43C100.987 105.41 101.197 104.17 101.197 102.71C101.197 101.35 101.007 100.18 100.627 99.2C100.247 98.2 99.7066 97.38 99.0066 96.74C98.3266 96.1 97.4866 95.63 96.4866 95.33C95.5066 95.01 94.4066 94.85 93.1866 94.85H89.1366V110.69ZM86.6166 92.54H93.1866C94.8066 92.54 96.2666 92.74 97.5666 93.14C98.8866 93.54 100.017 94.16 100.957 95C101.897 95.84 102.617 96.9 103.117 98.18C103.637 99.46 103.897 100.97 103.897 102.71C103.897 104.47 103.617 106 103.057 107.3C102.497 108.58 101.737 109.65 100.777 110.51C99.8166 111.35 98.6866 111.98 97.3866 112.4C96.0866 112.8 94.6866 113 93.1866 113H86.6166V92.54ZM108.062 92.54H110.582V113H108.062V92.54ZM126.325 95.36C125.845 95.24 125.345 95.13 124.825 95.03C124.365 94.93 123.835 94.85 123.235 94.79C122.655 94.71 122.045 94.67 121.405 94.67C119.925 94.67 118.865 94.9 118.225 95.36C117.585 95.8 117.265 96.49 117.265 97.43C117.285 98.17 117.555 98.8 118.075 99.32C118.595 99.82 119.245 100.29 120.025 100.73C120.805 101.15 121.655 101.57 122.575 101.99C123.515 102.39 124.375 102.86 125.155 103.4C125.935 103.92 126.585 104.54 127.105 105.26C127.645 105.96 127.915 106.82 127.915 107.84C127.915 109.02 127.655 109.97 127.135 110.69C126.635 111.41 125.995 111.97 125.215 112.37C124.435 112.77 123.575 113.04 122.635 113.18C121.715 113.32 120.835 113.39 119.995 113.39C119.195 113.39 118.465 113.34 117.805 113.24C117.145 113.14 116.575 113.03 116.095 112.91C115.535 112.77 115.025 112.61 114.565 112.43L115.165 110C115.625 110.2 116.115 110.37 116.635 110.51C117.095 110.63 117.605 110.74 118.165 110.84C118.745 110.94 119.355 110.99 119.995 110.99C120.775 110.99 121.485 110.94 122.125 110.84C122.785 110.74 123.355 110.58 123.835 110.36C124.315 110.14 124.685 109.85 124.945 109.49C125.225 109.13 125.365 108.69 125.365 108.17C125.345 107.39 125.085 106.76 124.585 106.28C124.105 105.78 123.455 105.31 122.635 104.87C121.835 104.41 120.965 103.97 120.025 103.55C119.105 103.13 118.255 102.65 117.475 102.11C116.695 101.57 116.035 100.93 115.495 100.19C114.975 99.45 114.715 98.53 114.715 97.43C114.715 96.79 114.825 96.16 115.045 95.54C115.265 94.92 115.635 94.37 116.155 93.89C116.695 93.41 117.385 93.02 118.225 92.72C119.085 92.42 120.145 92.27 121.405 92.27C122.125 92.27 122.805 92.31 123.445 92.39C124.105 92.45 124.675 92.52 125.155 92.6C125.715 92.7 126.245 92.81 126.745 92.93L126.325 95.36ZM131.646 92.54H136.356C138.956 92.54 140.876 93 142.116 93.92C143.376 94.84 144.006 96.39 144.006 98.57C144.006 99.77 143.776 100.77 143.316 101.57C142.856 102.37 142.276 103.02 141.576 103.52C140.896 104 140.156 104.35 139.356 104.57C138.556 104.77 137.816 104.87 137.136 104.87H134.166V113H131.646V92.54ZM134.166 102.62H136.926C137.606 102.62 138.216 102.56 138.756 102.44C139.316 102.3 139.796 102.08 140.196 101.78C140.596 101.46 140.906 101.04 141.126 100.52C141.346 99.98 141.456 99.31 141.456 98.51C141.456 97.71 141.336 97.07 141.096 96.59C140.876 96.09 140.536 95.71 140.076 95.45C139.636 95.19 139.076 95.02 138.396 94.94C137.716 94.84 136.926 94.79 136.026 94.79H134.166V102.62ZM146.737 102.77C146.737 100.83 147.037 99.19 147.637 97.85C148.257 96.51 149.037 95.43 149.977 94.61C150.937 93.79 151.997 93.2 153.157 92.84C154.337 92.46 155.487 92.27 156.607 92.27C157.727 92.27 158.867 92.43 160.027 92.75C161.207 93.05 162.267 93.6 163.207 94.4C164.167 95.18 164.947 96.25 165.547 97.61C166.167 98.97 166.477 100.7 166.477 102.8C166.477 104.76 166.167 106.41 165.547 107.75C164.947 109.09 164.167 110.18 163.207 111.02C162.267 111.86 161.207 112.47 160.027 112.85C158.867 113.21 157.727 113.39 156.607 113.39C155.487 113.39 154.337 113.21 153.157 112.85C151.997 112.49 150.937 111.9 149.977 111.08C149.037 110.26 148.257 109.17 147.637 107.81C147.037 106.45 146.737 104.77 146.737 102.77ZM163.627 102.92C163.627 100.22 162.997 98.17 161.737 96.77C160.497 95.37 158.827 94.67 156.727 94.67C155.667 94.67 154.697 94.84 153.817 95.18C152.957 95.5 152.207 95.99 151.567 96.65C150.947 97.31 150.457 98.14 150.097 99.14C149.757 100.12 149.587 101.28 149.587 102.62C149.587 105.32 150.207 107.39 151.447 108.83C152.707 110.27 154.387 110.99 156.487 110.99C157.527 110.99 158.487 110.83 159.367 110.51C160.247 110.17 160.997 109.66 161.617 108.98C162.257 108.3 162.747 107.46 163.087 106.46C163.447 105.46 163.627 104.28 163.627 102.92ZM170.64 92.54H173.04L183.78 108.77H183.84C183.8 108.19 183.77 107.57 183.75 106.91C183.71 106.35 183.68 105.71 183.66 104.99C183.66 104.25 183.66 103.5 183.66 102.74V92.54H186.06V113H183.66L172.92 96.71H172.86C172.88 97.31 172.91 97.94 172.95 98.6C172.97 99.18 172.99 99.83 173.01 100.55C173.03 101.27 173.04 102.01 173.04 102.77V113H170.64V92.54ZM191.353 92.54H193.873V113H191.353V92.54ZM199.146 92.54H204.606C206.766 92.54 208.326 92.94 209.286 93.74C210.266 94.54 210.756 95.76 210.756 97.4C210.756 98.16 210.646 98.82 210.426 99.38C210.226 99.94 209.996 100.41 209.736 100.79C209.436 101.23 209.106 101.61 208.746 101.93C209.226 102.11 209.676 102.34 210.096 102.62C210.516 102.9 210.886 103.24 211.206 103.64C211.526 104.04 211.776 104.52 211.956 105.08C212.156 105.62 212.256 106.26 212.256 107C212.256 107.82 212.146 108.6 211.926 109.34C211.706 110.06 211.336 110.69 210.816 111.23C210.296 111.77 209.606 112.2 208.746 112.52C207.886 112.84 206.816 113 205.536 113H199.146V92.54ZM201.666 101.42H206.676C206.956 101.2 207.206 100.91 207.426 100.55C207.626 100.25 207.806 99.88 207.966 99.44C208.126 98.98 208.206 98.43 208.206 97.79C208.206 96.61 207.896 95.82 207.276 95.42C206.676 95 205.826 94.79 204.726 94.79H201.666V101.42ZM201.666 110.75H205.746C207.066 110.75 208.056 110.41 208.716 109.73C209.376 109.05 209.706 108.14 209.706 107C209.706 106.5 209.636 106.04 209.496 105.62C209.376 105.2 209.156 104.84 208.836 104.54C208.516 104.22 208.086 103.97 207.546 103.79C207.006 103.61 206.336 103.52 205.536 103.52H201.666V110.75ZM216.402 92.54H218.922V110.6H228.222V113H216.402V92.54ZM231.372 92.54H243.912V94.85H233.892V101.39H243.192V103.64H233.892V110.69H244.212V113H231.372V92.54Z" fill="white"/>
</svg>
