<svg width="99" height="103" viewBox="0 0 99 103" fill="none" xmlns="http://www.w3.org/2000/svg">
<rect y="15" width="99" height="41" fill="#4BC221"/>
<rect x="5" width="34" height="8" rx="4" fill="#4BC221"/>
<rect x="56" width="34" height="8" rx="4" fill="#4BC221"/>
<rect x="5" y="63" width="34" height="8" rx="4" fill="#4BC221"/>
<rect x="56" y="63" width="34" height="8" rx="4" fill="#4BC221"/>
<path d="M40.6398 82.54H43.7598L50.7798 103H48.1698L46.3698 97.54H38.0598L36.2298 103H33.6198L40.6398 82.54ZM45.5598 95.14L42.2598 84.94H42.1698L38.8398 95.14H45.5598ZM52.6504 101.86C54.2904 100.56 55.7604 99.29 57.0604 98.05C57.6204 97.53 58.1604 96.99 58.6804 96.43C59.2204 95.87 59.7004 95.32 60.1204 94.78C60.5404 94.24 60.8704 93.73 61.1104 93.25C61.3704 92.75 61.5004 92.3 61.5004 91.9C61.5004 91.26 61.2904 90.74 60.8704 90.34C60.4704 89.92 59.6704 89.71 58.4704 89.71C57.8504 89.71 57.2504 89.76 56.6704 89.86C56.0904 89.96 55.5704 90.06 55.1104 90.16C54.5704 90.3 54.0504 90.45 53.5504 90.61L52.8304 88.69C53.3504 88.49 53.9404 88.31 54.6004 88.15C55.1404 88.01 55.7704 87.89 56.4904 87.79C57.2304 87.67 58.0104 87.61 58.8304 87.61C59.4904 87.61 60.1304 87.68 60.7504 87.82C61.3904 87.94 61.9504 88.16 62.4304 88.48C62.9304 88.78 63.3204 89.19 63.6004 89.71C63.9004 90.23 64.0504 90.89 64.0504 91.69C64.0504 92.15 63.9504 92.64 63.7504 93.16C63.5504 93.66 63.2904 94.17 62.9704 94.69C62.6704 95.19 62.3104 95.7 61.8904 96.22C61.4904 96.72 61.0804 97.2 60.6604 97.66C59.6804 98.74 58.5604 99.81 57.3004 100.87C57.7804 100.85 58.2804 100.83 58.8004 100.81C59.2604 100.79 59.7804 100.78 60.3604 100.78C60.9604 100.76 61.5804 100.75 62.2204 100.75H64.5004V103H52.6504V101.86Z" fill="white"/>
</svg>
